HIERARCHY
ROOT Hips
{
	OFFSET 0.000000 0.000000 0.000000 
	CHANNELS 6 Xposition Yposition Zposition Zrotation Yrotation Xrotation
	JOINT LeftUpLeg
	{
		OFFSET 1.363060 -1.794630 0.839290 
		CHANNELS 3 Zrotation Yrotation Xrotation
		JOINT LeftLeg
		{
			OFFSET 2.448110 -6.726130 0.000000 
			CHANNELS 3 Zrotation Yrotation Xrotation
			JOINT LeftFoot
			{
				OFFSET 2.562200 -7.039590 0.000000 
				CHANNELS 3 Zrotation Yrotation Xrotation
				JOINT LeftToeBase
				{
					OFFSET 0.157640 -0.433110 2.322550 
					CHANNELS 3 Zrotation Yrotation Xrotation
					End Site
					{
						OFFSET 0.000000 0.000000 0.000000 
					}
				}
			}
		}
	}
	JOINT RightUpLeg
	{
		OFFSET -1.305520 -1.794630 0.839290 
		CHANNELS 3 Zrotation Yrotation Xrotation
		JOINT RightLeg
		{
			OFFSET -2.542530 -6.985550 0.000000 
			CHANNELS 3 Zrotation Yrotation Xrotation
			JOINT RightFoot
			{
				OFFSET -2.568260 -7.056230 0.000000 
				CHANNELS 3 Zrotation Yrotation Xrotation
				JOINT RightToeBase
				{
					OFFSET -0.164730 -0.452590 2.363150 
					CHANNELS 3 Zrotation Yrotation Xrotation
					End Site
					{
						OFFSET 0.000000 0.000000 0.000000 
					}
				}
			}
		}
	}
	JOINT Spine
	{
		OFFSET 0.028270 2.035590 -0.193380 
		CHANNELS 3 Zrotation Yrotation Xrotation
		JOINT Spine1
		{
			OFFSET 0.056720 2.048850 -0.042750 
			CHANNELS 3 Zrotation Yrotation Xrotation
			JOINT Neck1
			{
				OFFSET -0.054170 1.746240 0.172020 
				CHANNELS 3 Zrotation Yrotation Xrotation
				JOINT Head
				{
					OFFSET 0.104070 1.761360 -0.123970 
					CHANNELS 3 Zrotation Yrotation Xrotation
					End Site
					{
						OFFSET 0.000000 0.000000 0.000000 
					}
				}
			}
			JOINT LeftArm
			{
				OFFSET 3.362410 1.200890 -0.311210 
				CHANNELS 3 Zrotation Yrotation Xrotation
				JOINT LeftForeArm
				{
					OFFSET 4.983000 -0.000000 -0.000000 
					CHANNELS 3 Zrotation Yrotation Xrotation
					JOINT LeftHand
					{
						OFFSET 3.483560 -0.000000 -0.000000 
						CHANNELS 3 Zrotation Yrotation Xrotation
						JOINT LeftHandIndex1
						{
							OFFSET 0.715260 -0.000000 -0.000000 
							CHANNELS 3 Zrotation Yrotation Xrotation
							End Site
							{
								OFFSET 0.000000 0.000000 0.000000 
							}
						}
					}
				}
			}
			JOINT RightArm
			{
				OFFSET -3.136600 1.374050 -0.404650 
				CHANNELS 3 Zrotation Yrotation Xrotation
				JOINT RightForeArm
				{
					OFFSET -5.241900 -0.000000 -0.000000 
					CHANNELS 3 Zrotation Yrotation Xrotation
					JOINT RightHand
					{
						OFFSET -3.444170 -0.000000 -0.000000 
						CHANNELS 3 Zrotation Yrotation Xrotation
						JOINT RightHandIndex1
						{
							OFFSET -0.622530 -0.000000 -0.000000 
							CHANNELS 3 Zrotation Yrotation Xrotation
							End Site
							{
								OFFSET 0.000000 0.000000 0.000000 
							}
						}
					}
				}
			}
		}
	}
}
MOTION
Frames: 18
Frame Time: 0.041667
12.164674 17.479819 -1.774005 -158.320812 -46.071908 -169.843767 -3.263912 -7.902288 -42.675954 2.094306 15.387229 37.967273 0.859691 -2.260843 -8.484232 4.495600 -12.792200 -38.595500 28.801162 9.743381 -20.167444 1.675713 -7.906513 19.346592 0.105348 -4.213543 -6.247981 -0.067300 1.674300 -4.606500 -2.346302 1.920930 -0.390161 -9.178231 0.449599 -2.473687 -3.492338 18.503981 14.015872 -2.367100 7.249900 15.052200 -59.112864 -54.660101 6.682155 18.450992 -22.437727 -7.237684 1.857842 -3.120266 -56.758913 -7.125000 0.000000 0.000000 78.831599 32.632343 75.784793 -110.502436 58.584880 -77.050096 0.194744 -0.217718 -25.995546 7.125000 0.000000 0.000000 
12.216740 17.470462 -1.786946 -158.628453 -46.180784 -169.676091 -3.415065 -7.704893 -42.797885 2.087613 15.379106 37.934645 0.897981 -2.534847 -8.439514 4.657000 -12.986800 -39.319000 28.490825 9.767377 -20.383507 1.676699 -7.950888 19.441619 0.136603 -4.653146 -6.361391 -0.107000 2.109000 -5.807000 -2.087106 1.407510 -0.363207 -7.894008 0.146861 -2.311841 -3.690766 19.525256 13.946564 -2.108300 7.526900 15.045000 -59.669050 -53.870341 5.090207 18.720554 -22.867608 -7.275477 1.752390 -3.155958 -57.268174 -7.125000 0.000000 0.000000 77.840544 33.044228 77.218786 -111.033438 58.513248 -77.510949 0.188611 -0.207114 -26.406602 7.125000 0.000000 0.000000 
12.274081 17.460208 -1.802277 -158.891328 -46.338044 -169.608779 -3.601906 -7.448625 -42.839339 2.092063 15.361360 37.928145 0.942252 -2.826189 -8.437531 4.948600 -13.325700 -40.600300 28.171521 9.936627 -20.426932 1.699061 -7.959489 19.436876 0.183610 -5.293186 -6.542660 -0.094100 1.978100 -5.445100 -2.056779 1.366344 -0.305902 -7.838435 0.123757 -2.128156 -3.846300 19.641589 14.032695 -2.160500 7.528700 15.208900 -60.453392 -53.861353 4.970459 18.650706 -22.815034 -7.286645 1.726049 -3.104312 -55.938747 -7.125000 0.000000 0.000000 77.162443 32.900769 77.150658 -111.381929 58.454749 -77.820986 0.183053 -0.199748 -26.568236 7.125000 0.000000 0.000000 
12.336201 17.451149 -1.820794 -159.116393 -46.471897 -169.575380 -3.686423 -7.360281 -42.866547 2.082980 15.352815 37.907303 0.924643 -2.740797 -8.363144 5.270400 -13.682000 -41.978300 27.930728 10.181223 -20.375117 1.746170 -7.913072 19.280330 0.254312 -6.173002 -6.529013 -0.144400 2.449300 -6.749000 -2.034645 1.323676 -0.269610 -7.809000 0.102363 -2.019150 -3.936440 19.700479 14.110158 -2.212000 7.534000 15.320400 -61.153196 -53.843605 5.171536 18.549955 -22.714037 -7.250922 1.724844 -3.077020 -55.785227 -7.125000 0.000000 0.000000 76.547256 32.695608 77.128725 -111.652754 58.406529 -78.061314 0.182221 -0.197132 -26.735865 7.125000 0.000000 0.000000 
12.398122 17.442587 -1.844288 -159.322100 -46.574161 -169.586915 -3.608181 -7.498236 -42.848962 2.075771 15.357655 37.892226 0.896037 -2.624484 -8.187482 5.252400 -13.662500 -41.901900 27.937653 10.011161 -20.425032 1.776306 -7.849910 19.101488 0.312303 -6.821661 -5.953108 -0.693800 5.324700 -14.836900 -2.026046 1.266916 -0.251591 -7.826882 0.079459 -1.975287 -3.921643 19.705014 14.173155 -2.222400 7.541700 15.352200 -61.847380 -53.676565 5.976303 18.568090 -22.750182 -7.192997 1.744375 -3.102434 -57.171782 -7.125000 0.000000 0.000000 76.081968 32.452505 77.202151 -111.765130 58.382860 -78.159057 0.187891 -0.200900 -26.788612 7.125000 0.000000 0.000000 
12.462134 17.446171 -1.870569 -159.597586 -46.692245 -169.577301 -3.467954 -7.749259 -42.745486 2.078130 15.358533 37.876172 0.915233 -2.855065 -7.939059 4.767500 -13.117100 -39.808600 27.397904 10.942978 -19.850354 1.830453 -7.749045 18.849815 0.344656 -7.236074 -6.658253 -0.330700 3.695800 -10.222500 -2.052670 1.281281 -0.221076 -8.002057 0.095028 -1.903246 -3.814566 19.600839 14.332835 -2.191800 7.502200 15.430700 -62.546791 -53.612067 6.643881 18.479365 -22.673006 -7.147843 1.758781 -3.072450 -57.247810 -7.125000 0.000000 0.000000 75.662185 32.123524 76.996946 -111.767230 58.377507 -78.163530 0.186849 -0.204069 -26.706882 7.125000 0.000000 0.000000 
12.532218 17.439402 -1.899539 -159.859284 -46.831474 -169.534838 -3.340226 -7.944742 -42.699421 2.094347 15.370204 37.910543 0.937125 -3.069867 -7.790392 4.407700 -12.684000 -38.197000 27.173412 11.176557 -19.467453 1.862540 -7.640656 18.606900 0.342547 -7.235606 -7.145573 -0.325200 3.665500 -10.137500 -2.228235 1.636721 -0.188915 -8.967107 0.322115 -1.808952 -3.617629 18.841797 14.553344 -2.332300 7.269000 15.536100 -63.662984 -53.965435 8.894495 18.457725 -22.601516 -7.106602 1.764429 -3.049123 -57.458145 -7.125000 0.000000 0.000000 75.570847 31.293439 75.799497 -111.694552 58.374524 -78.105085 0.186098 -0.206791 -26.539232 7.125000 0.000000 0.000000 
12.606384 17.422080 -1.934780 -160.128420 -46.857230 -169.522160 -3.230970 -8.031742 -42.629152 2.106611 15.392779 37.956736 0.931684 -3.062962 -7.708823 4.360100 -12.624800 -37.979600 27.250004 10.867660 -19.189457 1.867286 -7.548313 18.464737 0.331525 -7.095013 -7.316366 -0.621300 5.044200 -14.034600 -2.036599 1.241792 -0.156396 -7.900297 0.071313 -1.673449 -3.662552 19.538430 14.355125 -2.084000 7.474400 15.322600 -63.842350 -53.410523 7.060165 18.329941 -22.562786 -7.053335 1.728307 -3.059809 -57.095963 -7.125000 0.000000 0.000000 74.936995 31.632545 76.965468 -111.692224 58.397944 -78.108304 0.186062 -0.199392 -26.679559 7.125000 0.000000 0.000000 
12.682441 17.400776 -1.969324 -160.426310 -47.024099 -169.537163 -3.120328 -8.275280 -42.528476 2.115293 15.421228 38.007170 0.913733 -3.012628 -7.545111 4.300400 -12.549700 -37.705600 27.344063 10.331345 -19.057841 1.844972 -7.527574 18.506834 0.306491 -6.804989 -7.537160 -1.040800 6.488200 -18.207600 -2.016482 1.133264 -0.088761 -7.787468 0.008933 -1.473931 -3.635165 19.619079 14.330756 -2.032500 7.503300 15.264700 -64.274116 -53.379505 6.600822 18.227308 -22.468221 -7.004530 1.659593 -3.067880 -56.374390 -7.125000 0.000000 0.000000 74.605818 31.516445 76.985230 -111.653244 58.416776 -78.078773 0.183294 -0.195464 -26.533529 7.125000 0.000000 0.000000 
12.760290 17.383155 -1.999787 -160.817119 -47.321237 -169.476574 -3.022520 -8.688291 -42.447897 2.110219 15.451148 38.024661 0.896664 -3.002845 -7.324013 4.131600 -12.333500 -36.922000 27.313021 9.856277 -18.984785 1.823371 -7.531422 18.598447 0.280916 -6.573771 -8.035223 -1.300100 7.223600 -20.379600 -2.031676 0.910516 -0.063691 -7.894272 -0.092538 -1.472151 -3.615527 19.689867 14.385763 -2.008600 7.534400 15.281000 -64.569689 -53.165849 6.095005 18.014732 -22.278845 -6.937734 1.576650 -3.023898 -54.863244 -7.125000 0.000000 0.000000 74.490441 31.256908 77.013323 -111.594908 58.426022 -78.025598 0.177517 -0.194602 -26.406050 7.125000 0.000000 0.000000 
12.840130 17.373996 -2.031942 -161.176689 -47.566995 -169.446740 -2.917950 -9.044316 -42.329178 2.096617 15.462060 37.999079 0.872394 -2.945155 -7.061217 3.940800 -12.081300 -36.020000 27.375665 9.384738 -18.953605 1.810273 -7.539444 18.680551 0.261483 -6.457071 -8.553859 -1.668000 8.137400 -23.132200 -2.036772 0.703117 -0.026878 -7.931188 -0.192244 -1.443530 -3.704854 19.680656 14.279301 -2.080800 7.550100 15.160100 -64.902255 -52.853099 5.806603 17.953483 -22.277123 -6.903393 1.544007 -2.990620 -54.208818 -7.125000 0.000000 0.000000 74.419930 31.060718 77.115566 -111.339836 58.477868 -77.801634 0.173944 -0.198099 -26.318784 7.125000 0.000000 0.000000 
12.921165 17.366231 -2.065989 -161.413228 -47.786730 -169.514532 -2.769444 -9.311921 -42.206761 2.078382 15.455787 37.937594 0.836744 -2.814601 -6.726609 3.768600 -11.846000 -35.189300 27.668005 8.766565 -18.996568 1.797423 -7.563169 18.789695 0.253509 -6.451437 -8.884326 -2.209700 9.289900 -26.706500 -2.031394 0.503776 0.022586 -7.937524 -0.289390 -1.354286 -3.760729 19.741808 14.222002 -2.090700 7.574200 15.081400 -65.186075 -52.537096 5.526912 17.975686 -22.366091 -6.894086 1.539113 -2.961253 -54.062460 -7.125000 0.000000 0.000000 74.296762 30.982269 77.215510 -110.957716 58.552122 -77.470445 0.171894 -0.202885 -26.241991 7.125000 0.000000 0.000000 
13.003295 17.355778 -2.100832 -161.621930 -47.996739 -169.561996 -2.613108 -9.541391 -42.113962 2.054736 15.441623 37.850804 0.800994 -2.661768 -6.421178 3.702900 -11.754200 -34.867900 28.059560 8.120076 -19.102013 1.788231 -7.591858 18.892784 0.271331 -6.648953 -8.901408 -2.723800 10.233900 -29.737700 -2.028344 0.268644 0.060545 -7.945168 -0.402142 -1.271145 -3.788834 19.906824 14.285026 -2.060400 7.625000 15.122800 -65.331061 -52.045697 5.304836 18.097974 -22.591671 -6.911577 1.531759 -2.926494 -54.226496 -7.125000 0.000000 0.000000 74.260007 30.963966 77.405241 -110.551384 58.628966 -77.117131 0.167577 -0.206055 -26.122973 7.125000 0.000000 0.000000 
13.086818 17.348511 -2.137467 -161.778578 -48.146467 -169.604851 -2.433113 -9.684972 -42.011791 2.031262 15.411355 37.739735 0.777953 -2.555104 -6.198727 3.731800 -11.794700 -35.009600 28.430864 7.749928 -19.172351 1.796530 -7.614009 18.944953 0.293663 -6.942363 -9.046511 -3.014500 10.718500 -31.336100 -2.061944 0.091185 0.083340 -8.128430 -0.475848 -1.220894 -3.812035 19.914753 14.338154 -2.098400 7.641400 15.134000 -65.494782 -51.449481 5.371534 18.287286 -22.911239 -6.947098 1.539831 -2.891106 -54.543901 -7.125000 0.000000 0.000000 74.463451 30.806798 77.549776 -110.021146 58.725217 -76.650794 0.161980 -0.208359 -25.817031 7.125000 0.000000 0.000000 
13.171337 17.346022 -2.173803 -161.893722 -48.250546 -169.625479 -2.206039 -9.800840 -41.919595 1.998994 15.368507 37.583592 0.752959 -2.423024 -5.973838 3.742200 -11.809200 -35.060300 28.776937 7.599472 -19.234894 1.817702 -7.636284 18.972016 0.310983 -7.256515 -9.429501 -3.032600 10.747600 -31.433200 -2.048255 -0.187998 0.126667 -8.038725 -0.618551 -1.059830 -3.858406 20.143505 14.281329 -2.048400 7.718800 15.099600 -65.518611 -50.850726 4.809813 18.480975 -23.233350 -6.998478 1.559878 -2.869054 -54.807437 -7.125000 0.000000 0.000000 74.574748 30.953237 77.995591 -109.431694 58.836606 -76.135283 0.156841 -0.209713 -25.529517 7.125000 0.000000 0.000000 
13.254861 17.344430 -2.206854 -162.057918 -48.341809 -169.585728 -1.963410 -10.019809 -41.809418 1.947654 15.317238 37.372817 0.704880 -2.141072 -5.691450 3.704500 -11.756400 -34.875500 29.084024 7.462251 -19.334757 1.837202 -7.665567 19.010448 0.332418 -7.594065 -9.762566 -2.950200 10.613900 -30.988700 -2.039732 -0.427501 0.179947 -7.979946 -0.742069 -0.881891 -4.002992 20.293566 14.112202 -2.094300 7.782100 15.001800 -65.623026 -50.353459 4.392797 18.631839 -23.494568 -7.038156 1.578320 -2.842684 -55.047181 -7.125000 0.000000 0.000000 74.535014 31.067768 78.332331 -108.982753 58.922516 -75.741599 0.155066 -0.214718 -25.404931 7.125000 0.000000 0.000000 
13.335697 17.343534 -2.240502 -162.279821 -48.338682 -169.575464 -1.757383 -10.240459 -41.555305 1.888036 15.240008 37.122254 0.652319 -1.806098 -5.437234 3.617500 -11.633200 -34.446600 29.309165 7.423531 -19.329199 1.850770 -7.695280 19.068421 0.348740 -7.873078 -10.111921 -2.845300 10.440300 -30.414700 -2.070409 -0.636419 0.143918 -8.090182 -0.833174 -1.074116 -4.010645 20.342391 14.083533 -2.099900 7.816300 14.949000 -65.828202 -49.739737 4.236327 18.674587 -23.622852 -7.031011 1.576298 -2.817439 -55.094472 -7.125000 0.000000 0.000000 74.602682 30.771487 78.696181 -108.524211 58.983190 -75.334817 0.155744 -0.227133 -25.326244 7.125000 0.000000 0.000000 
13.415338 17.342239 -2.274051 -162.529308 -48.373882 -169.540906 -1.632898 -10.424051 -41.238425 1.832753 15.137074 36.864358 0.618711 -1.582928 -5.267084 3.453300 -11.395100 -33.624100 29.425685 7.453711 -19.329971 1.864837 -7.732925 19.115908 0.358824 -8.081323 -10.438234 -2.807400 10.376600 -30.205000 -2.586980 0.160954 0.164502 -10.771472 -0.285511 -1.143367 -3.621541 18.501342 14.554236 -2.571000 7.298800 15.211400 -66.820433 -50.140437 8.663736 18.715240 -23.614823 -6.970388 1.587913 -2.794155 -55.365669 -7.125000 0.000000 0.000000 75.709885 28.945113 76.165726 -107.786491 59.054355 -74.669597 0.160426 -0.252671 -24.802712 7.125000 0.000000 0.000000 
